<?xml version="1.0" standalone="no"?>
<!DOCTYPE svg PUBLIC "-//W3C//DTD SVG 20010904//EN"
 "http://www.w3.org/TR/2001/REC-SVG-20010904/DTD/svg10.dtd">
<svg version="1.0" xmlns="http://www.w3.org/2000/svg"
 width="1000.000000pt" height="1000.000000pt" viewBox="0 0 1000.000000 1000.000000"
 preserveAspectRatio="xMidYMid meet">
<metadata>
Created by potrace 1.11, written by Peter Selinger 2001-2013
</metadata>
<g transform="translate(0.000000,1000.000000) scale(0.100000,-0.100000)"
fill="#000000" stroke="none">
<path d="M8585 9254 c-402 -43 -807 -244 -1190 -590 -159 -143 -342 -372 -470
-585 -301 -504 -472 -1125 -526 -1904 -6 -93 -9 -201 -6 -239 8 -89 52 -182
119 -249 53 -53 173 -116 273 -143 90 -24 318 -30 430 -10 74 12 212 50 223
60 1 2 -5 36 -14 77 -25 116 -24 297 4 385 61 197 204 304 448 334 125 16 201
45 381 148 248 141 343 175 503 174 199 0 397 -80 638 -257 66 -48 87 -71 110
-115 27 -53 28 -59 21 -143 -9 -95 -43 -233 -84 -336 -14 -36 -25 -72 -25 -82
0 -20 51 -33 62 -16 29 48 139 354 179 500 106 389 157 748 166 1182 10 493
-41 898 -146 1161 -133 330 -387 551 -718 624 -86 19 -297 32 -378 24z"/>
<path d="M8940 6163 c0 -55 -1 -58 -51 -106 -49 -47 -136 -97 -170 -97 -9 0
-30 7 -45 15 -41 21 -150 19 -256 -6 -49 -12 -87 -23 -84 -26 2 -3 61 0 129 7
116 12 127 11 156 -6 17 -10 31 -24 31 -30 0 -17 -135 -67 -261 -97 -196 -48
-469 -81 -483 -58 -4 6 -19 11 -34 11 -33 0 -51 -26 -68 -97 -10 -43 -10 -54
2 -64 28 -23 11 -45 -99 -134 -102 -82 -115 -97 -150 -165 -48 -95 -69 -201
-97 -475 -23 -236 -41 -345 -70 -430 -25 -72 -67 -145 -83 -145 -7 0 -29 44
-51 98 -83 210 -230 482 -353 655 -65 92 -265 298 -332 343 l-44 29 -211 3
c-202 3 -333 -5 -458 -29 -49 -10 -58 -15 -58 -33 0 -19 6 -21 66 -23 82 -2
146 -23 226 -75 77 -50 144 -117 274 -278 330 -409 505 -733 544 -1013 29
-208 -31 -596 -134 -865 -293 -765 -1040 -1381 -1947 -1606 -495 -123 -949
-127 -1405 -11 -616 156 -1104 508 -1464 1055 -84 128 -105 172 -136 284 -45
161 -55 157 -51 -19 3 -141 6 -157 41 -262 20 -62 46 -134 58 -160 12 -27 22
-53 23 -59 6 -26 89 -188 141 -274 465 -772 1398 -1133 2510 -970 630 93 1078
300 1486 689 318 302 608 723 943 1366 43 83 79 151 81 153 1 2 25 -4 53 -14
38 -12 74 -15 139 -12 210 12 335 103 648 478 l163 195 243 1 c265 0 309 6
493 64 55 17 123 34 151 37 l50 5 38 -71 c64 -121 88 -218 88 -352 1 -103 -2
-122 -24 -170 -47 -100 -63 -109 -248 -129 -287 -31 -554 -103 -574 -155 -12
-33 476 -48 636 -20 277 48 429 173 458 377 21 143 -32 343 -152 583 -76 151
-98 275 -98 550 0 119 -4 225 -10 240 -19 50 -79 95 -125 95 -39 0 -77 -24
-188 -119 -123 -106 -211 -199 -477 -506 -370 -428 -548 -591 -745 -686 -44
-21 -108 -46 -142 -54 -65 -17 -187 -25 -198 -13 -7 6 186 362 342 632 121
208 133 249 163 527 30 283 52 370 121 489 43 75 105 150 122 149 18 0 52 -49
66 -92 9 -26 20 -39 37 -43 14 -4 27 -16 30 -30 5 -18 11 -23 25 -19 10 4 24
3 29 0 15 -9 -7 -35 -29 -35 -9 0 -25 -7 -35 -15 -20 -15 -20 -15 0 -31 14
-11 15 -17 6 -21 -21 -9 -43 -61 -36 -88 4 -16 -2 -44 -15 -74 -14 -33 -18
-57 -13 -71 7 -20 9 -19 33 17 17 27 31 38 48 37 16 -1 38 15 68 48 25 26 54
48 64 48 21 0 64 38 54 48 -3 4 -30 9 -58 12 -66 6 -67 23 -2 30 29 3 70 17
97 33 51 30 69 33 97 15 16 -10 27 -6 68 20 47 31 48 32 64 13 12 -15 19 -17
28 -8 27 27 0 73 -68 116 -42 27 -57 31 -117 31 -82 0 -108 14 -135 74 -26 57
-24 74 12 107 26 24 40 29 81 29 39 0 54 -5 75 -26 22 -22 25 -31 19 -71 -7
-54 10 -55 36 -2 29 62 37 64 136 46 117 -23 231 -31 278 -22 l39 8 -50 8
c-76 12 -92 24 -92 69 l0 39 79 7 c43 4 81 11 84 15 3 5 -4 9 -15 9 -30 0 -26
19 7 30 71 27 96 53 27 30 -20 -7 -39 -9 -42 -6 -13 12 31 75 56 81 54 13 129
75 156 128 29 59 31 80 10 152 -31 105 -130 195 -216 195 -29 0 -29 -1 -29
-57z m-90 -1493 c16 -17 38 -56 50 -86 44 -119 84 -365 78 -479 l-3 -60 -55
-9 c-46 -7 -94 -1 -287 33 -299 53 -373 70 -373 86 0 41 230 328 352 439 120
110 187 131 238 76z"/>
<path d="M1545 5775 c-145 -27 -260 -86 -405 -205 -107 -88 -320 -314 -320
-339 0 -6 -4 -11 -8 -11 -13 0 -111 -142 -187 -270 -456 -770 -580 -1621 -315
-2166 168 -347 481 -569 929 -660 110 -22 130 -24 175 -13 74 17 186 62 311
123 109 54 110 54 68 55 -24 1 -71 12 -106 25 -34 13 -83 27 -107 31 -81 13
-243 66 -328 105 -349 164 -579 473 -674 910 -20 95 -23 131 -23 370 0 212 4
284 18 360 44 234 108 426 205 615 25 50 50 95 54 100 4 6 34 46 67 90 97 132
169 198 285 260 225 122 454 91 678 -92 74 -60 117 -119 148 -199 56 -152 86
-465 70 -728 -21 -333 -82 -549 -183 -646 -28 -27 -47 -54 -47 -67 0 -13 4
-23 8 -23 15 0 146 82 202 127 65 51 197 184 229 230 17 26 27 70 47 205 27
195 28 202 43 276 43 213 123 433 211 577 22 37 40 71 40 76 0 5 4 9 8 9 5 0
23 20 41 45 79 111 222 220 339 261 185 64 355 30 487 -97 114 -109 165 -247
165 -447 0 -179 -35 -320 -130 -519 -75 -157 -140 -264 -243 -400 -45 -60
-164 -218 -265 -350 -195 -259 -309 -387 -411 -465 -87 -66 -55 -61 59 10 412
254 690 542 970 1006 173 287 283 550 337 806 27 129 25 369 -5 473 -97 341
-394 533 -753 487 -220 -29 -424 -135 -589 -306 -143 -150 -250 -347 -310
-571 -12 -47 -27 -56 -34 -20 -3 12 -17 80 -31 151 -84 412 -251 696 -461 784
-41 17 -164 44 -184 41 -3 0 -36 -7 -75 -14z"/>
<path d="M4630 4903 c-59 -11 -189 -82 -276 -151 -16 -12 -94 -69 -174 -127
-139 -101 -190 -146 -190 -165 0 -5 62 21 138 58 l137 67 90 0 c85 0 95 -2
169 -40 142 -70 288 -237 401 -458 22 -41 36 -79 32 -84 -5 -4 -36 3 -70 15
-310 115 -338 123 -417 116 -227 -19 -388 -110 -501 -282 -56 -85 -69 -124
-69 -207 1 -194 203 -240 502 -116 41 17 186 97 323 177 136 80 253 143 260
140 24 -9 65 -73 133 -206 37 -74 73 -136 80 -138 21 -6 14 82 -18 237 -17 79
-30 157 -30 174 0 40 87 129 268 274 94 76 142 121 142 134 0 10 -2 19 -5 19
-9 0 -262 -172 -323 -220 -35 -28 -69 -50 -75 -50 -8 0 -27 62 -51 163 -72
307 -159 529 -240 613 -32 32 -53 44 -94 53 -53 11 -96 12 -142 4z"/>
<path d="M6429 3020 c0 -3 -2 -14 -4 -25 -2 -10 2 -26 8 -34 10 -12 9 -13 -1
-7 -8 5 -22 -2 -37 -18 -13 -14 -19 -26 -14 -26 6 0 7 -5 4 -11 -4 -6 -14 -8
-22 -5 -11 5 -13 2 -9 -10 4 -12 1 -14 -14 -9 -16 5 -20 2 -20 -19 0 -19 -4
-24 -16 -19 -12 4 -15 2 -12 -8 3 -8 -2 -20 -11 -27 -13 -11 -13 -12 -1 -6 10
5 9 1 -4 -14 -10 -11 -28 -22 -40 -24 -14 -2 -20 -9 -18 -20 2 -12 -2 -16 -13
-12 -10 4 -15 0 -15 -14 0 -11 -7 -23 -16 -26 -8 -3 -12 -2 -9 4 3 6 2 10 -4
10 -18 0 -21 -18 -5 -34 18 -19 11 -21 -18 -5 -15 8 -19 8 -14 0 4 -6 0 -11
-9 -11 -9 0 -13 4 -10 10 4 6 -1 7 -11 3 -22 -8 -6 -17 76 -38 124 -33 237
-18 299 38 72 67 67 206 -12 322 -15 22 -27 37 -28 35z"/>
<path d="M8440 2420 c-244 -36 -466 -90 -573 -140 -48 -23 -84 -61 -73 -78 3
-6 43 -20 88 -33 65 -18 109 -23 203 -23 130 -1 164 9 201 57 18 23 22 24 104
16 107 -10 167 1 197 35 27 31 43 86 43 144 0 41 -1 42 -32 41 -18 -1 -89 -10
-158 -19z"/>
<path d="M7866 2040 c30 -51 143 -151 201 -177 70 -32 192 -42 244 -20 30 12
40 24 53 64 9 28 14 57 10 66 -9 25 -57 35 -204 42 -132 6 -266 27 -303 47
-19 10 -19 9 -1 -22z"/>
<path d="M6195 1601 c-112 -33 -189 -70 -378 -178 -92 -54 -94 -47 48 -143
613 -410 1240 -720 1457 -720 87 0 141 55 122 123 -7 24 -16 32 -35 34 -34 2
-154 56 -255 113 -213 122 -348 258 -533 535 -150 226 -176 248 -295 252 -46
2 -92 -4 -131 -16z"/>
</g>
</svg>
